<svg width="112" height="112" viewBox="0 0 112 112" fill="none" xmlns="http://www.w3.org/2000/svg">
<g filter="url(#filter0_d)">
<path fill-rule="evenodd" clip-rule="evenodd" d="M16 48C16 25.9086 33.9086 8 56 8C78.0914 8 96 25.9086 96 48C96 70.0914 78.0914 88 56 88C33.9086 88 16 70.0914 16 48Z" fill="white"/>
<path fill-rule="evenodd" clip-rule="evenodd" d="M56 24C42.7451 24 32 33.9492 32 46.2222C32 53.2156 35.49 59.4535 40.9441 63.527V72L49.1159 67.5151C51.2967 68.1187 53.6072 68.4444 56 68.4444C69.2549 68.4444 80 58.4953 80 46.2222C80 33.9492 69.2549 24 56 24ZM57.7544 53.3333L51.7384 47.0922L40 53.3333L52.9123 40L59.075 46.2411L70.6667 40L57.7544 53.3333Z" fill="#0084FF"/>
</g>
<defs>
<filter id="filter0_d" x="0" y="0" width="112" height="112" filterUnits="userSpaceOnUse" color-interpolation-filters="sRGB">
<feFlood flood-opacity="0" result="BackgroundImageFix"/>
<feColorMatrix in="SourceAlpha" type="matrix" values="0 0 0 0 0 0 0 0 0 0 0 0 0 0 0 0 0 0 127 0"/>
<feOffset dy="8"/>
<feGaussianBlur stdDeviation="8"/>
<feColorMatrix type="matrix" values="0 0 0 0 0 0 0 0 0 0 0 0 0 0 0 0 0 0 0.08 0"/>
<feBlend mode="normal" in2="BackgroundImageFix" result="effect1_dropShadow"/>
<feBlend mode="normal" in="SourceGraphic" in2="effect1_dropShadow" result="shape"/>
</filter>
</defs>
</svg>
