<svg width="112" height="112" viewBox="0 0 112 112" fill="none" xmlns="http://www.w3.org/2000/svg">
<g filter="url(#filter0_d)">
<circle cx="56" cy="48" r="40" fill="white"/>
<path fill-rule="evenodd" clip-rule="evenodd" d="M66.7999 69C49.8159 69 35.9999 55.184 35.9999 38.2C35.9999 33.126 40.1279 29 45.1999 29C45.7199 29 46.2339 29.044 46.7319 29.13C47.2179 29.208 47.7079 29.332 48.1819 29.496C48.8339 29.722 49.3219 30.268 49.4759 30.94L52.2159 42.868C52.3659 43.524 52.1759 44.212 51.7099 44.7C51.4359 44.984 51.4299 44.99 48.9499 46.288C50.9579 50.636 54.4479 54.114 58.7099 56.054C60.0079 53.572 60.0159 53.564 60.2999 53.292C60.7899 52.824 61.4799 52.642 62.1339 52.786L74.0619 55.524C74.7319 55.678 75.278 56.166 75.5039 56.816C75.6679 57.288 75.79 57.776 75.8719 58.278C75.956 58.772 75.9999 59.284 75.9999 59.8C75.9999 64.874 71.8739 69 66.7999 69Z" fill="#44AF69"/>
</g>
<defs>
<filter id="filter0_d" x="0" y="0" width="112" height="112" filterUnits="userSpaceOnUse" color-interpolation-filters="sRGB">
<feFlood flood-opacity="0" result="BackgroundImageFix"/>
<feColorMatrix in="SourceAlpha" type="matrix" values="0 0 0 0 0 0 0 0 0 0 0 0 0 0 0 0 0 0 127 0"/>
<feOffset dy="8"/>
<feGaussianBlur stdDeviation="8"/>
<feColorMatrix type="matrix" values="0 0 0 0 0 0 0 0 0 0 0 0 0 0 0 0 0 0 0.08 0"/>
<feBlend mode="normal" in2="BackgroundImageFix" result="effect1_dropShadow"/>
<feBlend mode="normal" in="SourceGraphic" in2="effect1_dropShadow" result="shape"/>
</filter>
</defs>
</svg>
