<svg width="169" height="38" viewBox="0 0 169 38" fill="none" xmlns="http://www.w3.org/2000/svg">
<path d="M8.7509 1.28198H37.2359L32.5536 33.3854H5.28349C4.64372 33.3854 4.15356 32.8033 4.24801 32.1557L8.7509 1.28198Z" fill="#43DB77"/>
<path d="M5.52037 4.8855H33.4467L28.8563 36.7183H7.48093C4.02896 36.7183 1.38243 33.5806 1.88644 30.0855L5.52037 4.8855Z" fill="#FFC058"/>
<path d="M8.45498 4.8855H33.4575L29.3477 33.3855H10.2103C7.11972 33.3855 4.75027 30.5763 5.20151 27.4471L8.45498 4.8855Z" fill="white"/>
<path fill-rule="evenodd" clip-rule="evenodd" d="M33.4924 4.8855H8.21814L4.93048 27.4391C4.47397 30.5707 6.84431 33.3855 9.93806 33.3855H29.338L30.3058 26.7463H13.9677C11.4463 26.7463 9.53291 24.4216 9.96119 21.8786L10.9595 15.9505C11.2956 13.9546 12.9871 12.4963 14.966 12.4963H23.464C25.9505 12.4963 27.8506 14.7669 27.4684 17.2814C27.1613 19.3017 25.4616 20.7916 23.464 20.7916H17.0656C16.3665 20.7916 15.7998 20.2116 15.7998 19.4961C15.7998 18.7806 16.3665 18.2007 17.0656 18.2007H23.464C24.2138 18.2007 24.8517 17.6415 24.9669 16.8832C25.1104 15.9394 24.3972 15.0872 23.464 15.0872H14.966C14.2193 15.0872 13.5811 15.6375 13.4542 16.3906L12.4559 22.3186C12.2943 23.2782 13.0163 24.1554 13.9677 24.1554H30.6834L33.4924 4.8855Z" fill="#3981F3"/>
<path d="M54.5792 14.565H49.7733L49.3381 17.0557H54.0533L53.5636 19.8969H48.8484L48.0323 24.6383H45.1306L47.3613 11.7239H55.0689L54.5792 14.565Z" fill="white"/>
<path d="M61.3715 11.7239C62.6773 11.7239 63.6929 12.1666 64.4183 13.0522C65.1437 13.9255 65.4157 15.0201 65.2344 16.3362C65.053 17.5907 64.4969 18.6177 63.5659 19.4172C62.635 20.1921 61.4562 20.5795 60.0295 20.5795H58.1615L57.4543 24.6383H54.5526L56.7832 11.7239H61.3715ZM62.3327 16.1517C62.4294 15.6351 62.3569 15.2292 62.1151 14.934C61.8854 14.6388 61.4803 14.4912 60.9 14.4912H59.2134L58.6331 17.8121H60.3197C60.8637 17.8121 61.3111 17.6645 61.6617 17.3693C62.0123 17.0741 62.236 16.6683 62.3327 16.1517Z" fill="white"/>
<path d="M75.8269 11.7239L75.3373 14.565H72.0729L70.3319 24.6383H67.4302L69.1712 14.565H65.9068L66.3965 11.7239H75.8269Z" fill="white"/>
<path d="M74.4564 24.8966C74.2146 24.8966 73.997 24.8474 73.8035 24.749C73.6222 24.6506 73.465 24.5215 73.332 24.3616C73.2111 24.2017 73.1265 24.0172 73.0781 23.8081C73.0298 23.5867 73.0237 23.353 73.06 23.107C73.1446 22.6151 73.3743 22.2092 73.7491 21.8894C74.1239 21.5573 74.5652 21.3913 75.073 21.3913C75.3027 21.3913 75.5143 21.4405 75.7078 21.5389C75.9012 21.6372 76.0584 21.7664 76.1793 21.9263C76.3123 22.0862 76.403 22.2768 76.4513 22.4982C76.5118 22.7196 76.5239 22.9471 76.4876 23.1808C76.403 23.6728 76.1732 24.0848 75.7984 24.4169C75.4236 24.7367 74.9763 24.8966 74.4564 24.8966Z" fill="white"/>
<path d="M83.8556 15.1554C85.2097 15.1554 86.2736 15.6228 87.0474 16.5576C87.8454 17.4923 88.1174 18.6485 87.8635 20.026C87.8393 20.2228 87.797 20.4134 87.7366 20.5979C87.6882 20.7824 87.6338 20.9608 87.5733 21.133H81.0808C81.2017 21.9939 81.8244 22.4244 82.9488 22.4244C83.7105 22.4244 84.3452 22.1846 84.853 21.7049L86.7572 23.2915C85.7175 24.3616 84.3875 24.8966 82.7674 24.8966C81.232 24.8966 80.0652 24.4108 79.2673 23.4391C78.4814 22.4429 78.2033 21.2437 78.4331 19.8415C78.6265 18.5009 79.2431 17.3878 80.2829 16.5022C81.3106 15.6044 82.5014 15.1554 83.8556 15.1554ZM85.3064 19.0298C85.2097 18.0827 84.6656 17.6092 83.6742 17.6092C82.6707 17.6092 81.9332 18.0827 81.4617 19.0298H85.3064Z" fill="white"/>
<path d="M94.9188 24.8966C92.9843 24.8966 91.4851 24.2263 90.4212 22.8856C89.3572 21.5573 88.9824 19.9276 89.2968 17.9966C89.599 16.1271 90.4575 14.565 91.872 13.3105C93.2745 12.0806 94.9248 11.4656 96.823 11.4656C98.032 11.4656 99.0658 11.73 99.9242 12.2589C100.795 12.7755 101.442 13.5134 101.865 14.4728L99.1988 15.8934C98.7031 14.8602 97.8084 14.3437 96.5147 14.3437C95.4145 14.3437 94.4654 14.6942 93.6674 15.3953C92.8816 16.0963 92.3919 17.0249 92.1985 18.1811C92.005 19.3126 92.1743 20.2413 92.7063 20.9669C93.2261 21.668 94.0181 22.0185 95.082 22.0185C96.4603 22.0185 97.5605 21.4712 98.3827 20.3766L100.74 21.9447C100.051 22.8672 99.1988 23.5929 98.1832 24.1217C97.1797 24.6383 96.0915 24.8966 94.9188 24.8966Z" fill="white"/>
<path d="M106.302 24.8966C105.226 24.8966 104.337 24.6322 103.636 24.1033C102.934 23.5498 102.463 22.8856 102.221 22.1108C101.991 21.3359 101.961 20.518 102.13 19.657C102.384 18.4025 102.995 17.3386 103.962 16.4653C104.929 15.5921 106.132 15.1554 107.571 15.1554C109.01 15.1554 110.104 15.6904 110.854 16.7605C111.603 17.8183 111.857 19.0052 111.615 20.3212C111.398 21.5634 110.787 22.6397 109.784 23.5498C108.792 24.4477 107.632 24.8966 106.302 24.8966ZM108.913 20.026C109.034 19.3618 108.931 18.833 108.605 18.4394C108.291 18.0458 107.837 17.849 107.245 17.849C106.652 17.849 106.132 18.0458 105.685 18.4394C105.25 18.833 104.972 19.3618 104.851 20.026C104.742 20.6902 104.839 21.2191 105.141 21.6126C105.443 22.0062 105.891 22.203 106.483 22.203C107.075 22.203 107.601 22.0062 108.061 21.6126C108.52 21.2191 108.804 20.6902 108.913 20.026Z" fill="white"/>
<path d="M119.248 15.1554C120.215 15.1554 120.983 15.4998 121.551 16.1886C122.107 16.865 122.288 17.7937 122.095 18.9744L121.116 24.6383H118.395L119.302 19.3803C119.399 18.8145 119.32 18.3963 119.066 18.1257C118.824 17.8429 118.468 17.7014 117.996 17.7014C117.513 17.7014 117.089 17.849 116.727 18.1442C116.376 18.4394 116.14 18.8883 116.019 19.491L115.131 24.6383H112.41L114.006 15.4137H116.727L116.582 16.2808C117.247 15.5306 118.135 15.1554 119.248 15.1554Z" fill="white"/>
<path d="M127.519 18.0704L126.957 21.3359C126.884 21.7172 126.981 21.957 127.247 22.0554C127.525 22.1538 128.008 22.1784 128.698 22.1292L128.262 24.6383C126.63 24.8228 125.494 24.6445 124.853 24.1033C124.212 23.5621 124.007 22.6397 124.236 21.3359L124.798 18.0704H123.348L123.819 15.4137H125.252L125.56 13.661L128.426 12.8308L127.972 15.4137H129.858L129.387 18.0704H127.519Z" fill="white"/>
<path d="M134.005 17.0741C134.271 16.4715 134.67 16.0164 135.202 15.7089C135.746 15.3891 136.363 15.2292 137.052 15.2292L136.526 18.3656C136.321 18.341 136.115 18.3287 135.91 18.3287C135.716 18.3287 135.517 18.3533 135.311 18.4025C135.106 18.4394 134.9 18.5132 134.694 18.6239C134.501 18.7346 134.314 18.8822 134.132 19.0667C133.963 19.2388 133.812 19.4418 133.679 19.6755C133.558 19.9092 133.473 20.1736 133.425 20.4688L133.443 20.3581L132.7 24.6383H129.979L131.575 15.4137H134.295L134.005 17.0741Z" fill="white"/>
<path d="M144.623 15.4137H147.343L145.747 24.6383H143.027L143.136 24.011C142.446 24.6014 141.54 24.8966 140.415 24.8966C139.037 24.8966 138.027 24.3862 137.387 23.3653C136.758 22.3445 136.57 21.1576 136.824 19.8046C137.066 18.5255 137.634 17.437 138.529 16.5391C139.448 15.6167 140.578 15.1554 141.92 15.1554C143.057 15.1554 143.903 15.5675 144.459 16.3915L144.623 15.4137ZM143.825 20.026C143.946 19.3249 143.837 18.7776 143.498 18.384C143.172 17.9782 142.694 17.7752 142.066 17.7752C141.437 17.7752 140.887 17.9782 140.415 18.384C139.956 18.7776 139.666 19.3249 139.545 20.026C139.424 20.7271 139.527 21.2806 139.853 21.6864C140.179 22.08 140.657 22.2768 141.286 22.2768C141.914 22.2768 142.465 22.0739 142.936 21.668C143.408 21.2621 143.704 20.7209 143.825 20.0445V20.026Z" fill="white"/>
<path d="M152.349 24.8966C150.91 24.8966 149.792 24.4108 148.994 23.4391C148.196 22.4675 147.906 21.2683 148.124 19.8415C148.329 18.4886 148.94 17.3693 149.955 16.4838C150.971 15.5982 152.162 15.1554 153.528 15.1554C154.471 15.1554 155.275 15.3707 155.94 15.8011C156.605 16.2316 157.089 16.8159 157.391 17.5538L154.906 18.8822C154.628 18.218 154.09 17.8859 153.292 17.8859C152.99 17.8859 152.7 17.9413 152.422 18.0519C152.156 18.1503 151.914 18.2918 151.696 18.4763C151.479 18.6608 151.291 18.8822 151.134 19.1405C150.989 19.3987 150.892 19.6816 150.844 19.9891C150.735 20.6164 150.844 21.1391 151.17 21.5573C151.497 21.9632 151.956 22.1661 152.549 22.1661C153.31 22.1661 153.939 21.8217 154.435 21.133L156.629 22.5536C156.17 23.3284 155.559 23.9127 154.798 24.3062C154.036 24.6998 153.22 24.8966 152.349 24.8966Z" fill="white"/>
<path d="M161.859 18.0704L161.297 21.3359C161.225 21.7172 161.321 21.957 161.587 22.0554C161.865 22.1538 162.349 22.1784 163.038 22.1292L162.603 24.6383C160.971 24.8228 159.834 24.6445 159.193 24.1033C158.553 23.5621 158.347 22.6397 158.577 21.3359L159.139 18.0704H157.688L158.16 15.4137H159.592L159.901 13.661L162.766 12.8308L162.313 15.4137H164.199L163.727 18.0704H161.859Z" fill="white"/>
</svg>
