<svg width="231" height="52" viewBox="0 0 231 52" fill="none" xmlns="http://www.w3.org/2000/svg">
<path d="M11.9611 1.75391H50.8962L44.4962 45.6849H7.2216C6.34713 45.6849 5.67715 44.8884 5.80626 44.0022L11.9611 1.75391Z" fill="#43DB77"/>
<path d="M7.54561 6.68506H45.7172L39.4427 50.2458H10.2254C5.50706 50.2458 1.88961 45.952 2.57851 41.1693L7.54561 6.68506Z" fill="#FFC058"/>
<path d="M11.5568 6.68506H45.7318L40.1143 45.6851H13.956C9.73165 45.6851 6.49294 41.8409 7.10972 37.5588L11.5568 6.68506Z" fill="white"/>
<path fill-rule="evenodd" clip-rule="evenodd" d="M45.7796 6.68506H11.2331L6.73927 37.5478C6.11528 41.8333 9.35522 45.6851 13.584 45.6851H40.101L41.4238 36.5998H19.0919C15.6455 36.5998 13.0302 33.4187 13.6156 29.9387L14.9802 21.8266C15.4396 19.0954 17.7516 17.0998 20.4565 17.0998H32.0721C35.4707 17.0998 38.0679 20.2069 37.5455 23.6479C37.1258 26.4125 34.8026 28.4513 32.0721 28.4513H23.3263C22.3708 28.4513 21.5962 27.6576 21.5962 26.6785C21.5962 25.6995 22.3708 24.9058 23.3263 24.9058H32.0721C33.0969 24.9058 33.9689 24.1406 34.1264 23.103C34.3225 21.8115 33.3477 20.6453 32.0721 20.6453H20.4565C19.4359 20.6453 18.5635 21.3983 18.3901 22.4289L17.0255 30.5409C16.8046 31.854 17.7915 33.0544 19.0919 33.0544H41.9401L45.7796 6.68506Z" fill="#3981F3"/>
<path d="M74.6024 19.9308H68.0334L67.4385 23.3391H73.8836L73.2143 27.227H66.7692L65.6537 33.7153H61.6875L64.7365 16.0429H75.2717L74.6024 19.9308Z" fill="#121E28"/>
<path d="M83.8866 16.0429C85.6714 16.0429 87.0596 16.6488 88.0511 17.8606C89.0427 19.0556 89.4145 20.5536 89.1666 22.3545C88.9187 24.0712 88.1585 25.4766 86.886 26.5706C85.6136 27.631 84.0023 28.1611 82.0522 28.1611H79.499L78.5322 33.7153H74.566L77.6151 16.0429H83.8866ZM85.2004 22.102C85.3326 21.3951 85.2335 20.8397 84.9029 20.4358C84.589 20.0318 84.0353 19.8298 83.2421 19.8298H80.9367L80.1435 24.3742H82.4489C83.1925 24.3742 83.804 24.1722 84.2832 23.7683C84.7625 23.3643 85.0682 22.8089 85.2004 22.102Z" fill="#121E28"/>
<path d="M103.645 16.0429L102.976 19.9308H98.5139L96.1342 33.7153H92.168L94.5477 19.9308H90.0857L90.755 16.0429H103.645Z" fill="#121E28"/>
<path d="M101.772 34.0688C101.441 34.0688 101.144 34.0014 100.879 33.8668C100.632 33.7321 100.417 33.5554 100.235 33.3366C100.07 33.1178 99.9541 32.8654 99.8879 32.5792C99.8218 32.2763 99.8136 31.9565 99.8632 31.6199C99.9788 30.9466 100.293 30.3912 100.805 29.9536C101.317 29.4992 101.921 29.272 102.615 29.272C102.929 29.272 103.218 29.3393 103.482 29.4739C103.747 29.6086 103.962 29.7853 104.127 30.0041C104.309 30.2229 104.433 30.4838 104.499 30.7867C104.581 31.0897 104.598 31.4011 104.548 31.7209C104.433 32.3941 104.119 32.9579 103.606 33.4124C103.094 33.85 102.483 34.0688 101.772 34.0688Z" fill="#121E28"/>
<path d="M114.619 20.7387C116.47 20.7387 117.924 21.3783 118.982 22.6574C120.073 23.9366 120.445 25.5187 120.098 27.4037C120.065 27.673 120.007 27.9339 119.924 28.1864C119.858 28.4388 119.784 28.6829 119.701 28.9185H110.827C110.992 30.0967 111.843 30.6858 113.38 30.6858C114.421 30.6858 115.289 30.3576 115.983 29.7012L118.585 31.8723C117.164 33.3366 115.346 34.0688 113.132 34.0688C111.033 34.0688 109.438 33.4039 108.348 32.0743C107.274 30.711 106.893 29.07 107.207 27.1513C107.472 25.3167 108.315 23.7935 109.736 22.5817C111.141 21.353 112.768 20.7387 114.619 20.7387ZM116.602 26.0404C116.47 24.7445 115.726 24.0965 114.371 24.0965C113 24.0965 111.992 24.7445 111.347 26.0404H116.602Z" fill="#121E28"/>
<path d="M129.741 34.0688C127.097 34.0688 125.048 33.1515 123.594 31.3169C122.139 29.4992 121.627 27.2691 122.057 24.6266C122.47 22.0684 123.643 19.9308 125.577 18.2141C127.494 16.531 129.749 15.6895 132.344 15.6895C133.997 15.6895 135.41 16.0513 136.583 16.775C137.773 17.4819 138.657 18.4918 139.235 19.8046L135.591 21.7486C134.914 20.3348 133.691 19.6279 131.923 19.6279C130.419 19.6279 129.121 20.1076 128.031 21.0669C126.957 22.0263 126.287 23.297 126.023 24.8791C125.758 26.4275 125.99 27.6983 126.717 28.6913C127.428 29.6507 128.51 30.1303 129.964 30.1303C131.848 30.1303 133.352 29.3814 134.476 27.8834L137.698 30.0294C136.756 31.2917 135.591 32.2847 134.203 33.0084C132.831 33.7153 131.344 34.0688 129.741 34.0688Z" fill="#121E28"/>
<path d="M145.3 34.0688C143.829 34.0688 142.615 33.7069 141.656 32.9832C140.698 32.2258 140.053 31.3169 139.723 30.2566C139.409 29.1962 139.367 28.077 139.599 26.8988C139.946 25.1821 140.78 23.7262 142.102 22.5312C143.424 21.3362 145.069 20.7387 147.035 20.7387C149.002 20.7387 150.497 21.4709 151.522 22.9351C152.547 24.3826 152.894 26.0068 152.563 27.8077C152.266 29.5076 151.431 30.9803 150.059 32.2258C148.704 33.4544 147.118 34.0688 145.3 34.0688ZM148.87 27.4037C149.035 26.4949 148.894 25.7711 148.448 25.2326C148.018 24.694 147.399 24.4247 146.589 24.4247C145.779 24.4247 145.069 24.694 144.457 25.2326C143.862 25.7711 143.482 26.4949 143.317 27.4037C143.168 28.3126 143.3 29.0363 143.714 29.5749C144.127 30.1135 144.738 30.3828 145.548 30.3828C146.358 30.3828 147.077 30.1135 147.704 29.5749C148.332 29.0363 148.721 28.3126 148.87 27.4037Z" fill="#121E28"/>
<path d="M162.995 20.7387C164.317 20.7387 165.367 21.21 166.143 22.1525C166.904 23.0782 167.152 24.3489 166.887 25.9647L165.549 33.7153H161.83L163.07 26.5201C163.202 25.7459 163.094 25.1737 162.747 24.8034C162.417 24.4163 161.929 24.2227 161.285 24.2227C160.624 24.2227 160.045 24.4247 159.55 24.8286C159.07 25.2326 158.748 25.8469 158.583 26.6716L157.368 33.7153H153.65L155.831 21.0922H159.55L159.351 22.2787C160.26 21.2521 161.475 20.7387 162.995 20.7387Z" fill="#121E28"/>
<path d="M174.301 24.7276L173.532 29.1962C173.433 29.718 173.565 30.0462 173.929 30.1808C174.309 30.3155 174.97 30.3491 175.912 30.2818L175.317 33.7153C173.086 33.9678 171.533 33.7237 170.657 32.9832C169.781 32.2426 169.5 30.9803 169.814 29.1962L170.583 24.7276H168.599L169.244 21.0922H171.202L171.624 18.6938L175.54 17.5577L174.921 21.0922H177.499L176.854 24.7276H174.301Z" fill="#121E28"/>
<path d="M183.167 23.3643C183.531 22.5396 184.076 21.9169 184.803 21.4961C185.547 21.0585 186.39 20.8397 187.332 20.8397L186.613 25.1316C186.332 25.0979 186.051 25.0811 185.77 25.0811C185.506 25.0811 185.233 25.1147 184.952 25.1821C184.671 25.2326 184.39 25.3335 184.109 25.485C183.845 25.6365 183.589 25.8385 183.341 26.0909C183.109 26.3266 182.903 26.6043 182.721 26.9241C182.556 27.2438 182.44 27.6057 182.374 28.0097L182.399 27.8582L181.382 33.7153H177.664L179.845 21.0922H183.564L183.167 23.3643Z" fill="#121E28"/>
<path d="M197.68 21.0922H201.398L199.217 33.7153H195.498L195.647 32.8569C194.705 33.6648 193.465 34.0688 191.929 34.0688C190.045 34.0688 188.665 33.3703 187.789 31.9733C186.93 30.5764 186.673 28.9522 187.02 27.1008C187.351 25.3504 188.128 23.8608 189.351 22.6322C190.607 21.3699 192.152 20.7387 193.986 20.7387C195.539 20.7387 196.696 21.3025 197.456 22.4302L197.68 21.0922ZM196.589 27.4037C196.754 26.4444 196.605 25.6954 196.143 25.1568C195.697 24.6014 195.044 24.3237 194.184 24.3237C193.325 24.3237 192.573 24.6014 191.929 25.1568C191.301 25.6954 190.904 26.4444 190.739 27.4037C190.573 28.3631 190.714 29.1205 191.16 29.6759C191.606 30.2145 192.259 30.4838 193.118 30.4838C193.978 30.4838 194.73 30.2061 195.374 29.6507C196.019 29.0952 196.424 28.3547 196.589 27.429V27.4037Z" fill="#121E28"/>
<path d="M208.241 34.0688C206.274 34.0688 204.746 33.4039 203.655 32.0743C202.564 30.7447 202.168 29.1037 202.465 27.1513C202.746 25.2999 203.58 23.7683 204.969 22.5564C206.357 21.3446 207.985 20.7387 209.852 20.7387C211.141 20.7387 212.24 21.0333 213.149 21.6223C214.058 22.2114 214.719 23.0109 215.132 24.0207L211.736 25.8385C211.356 24.9296 210.62 24.4752 209.53 24.4752C209.117 24.4752 208.72 24.5509 208.34 24.7024C207.976 24.837 207.646 25.0306 207.348 25.2831C207.051 25.5355 206.795 25.8385 206.58 26.1919C206.382 26.5454 206.249 26.9325 206.183 27.3532C206.035 28.2116 206.183 28.9269 206.63 29.4992C207.076 30.0546 207.704 30.3323 208.513 30.3323C209.555 30.3323 210.414 29.861 211.091 28.9185L214.091 30.8625C213.463 31.9228 212.628 32.7223 211.587 33.2609C210.546 33.7995 209.431 34.0688 208.241 34.0688Z" fill="#121E28"/>
<path d="M221.24 24.7276L220.471 29.1962C220.372 29.718 220.504 30.0462 220.868 30.1808C221.248 30.3155 221.909 30.3491 222.851 30.2818L222.256 33.7153C220.025 33.9678 218.472 33.7237 217.596 32.9832C216.72 32.2426 216.439 30.9803 216.753 29.1962L217.521 24.7276H215.538L216.183 21.0922H218.141L218.563 18.6938L222.479 17.5577L221.859 21.0922H224.438L223.793 24.7276H221.24Z" fill="#121E28"/>
</svg>
