<svg width="214" height="48" viewBox="0 0 214 48" fill="none" xmlns="http://www.w3.org/2000/svg">
<path d="M11.0411 1.6192H46.9812L41.0735 42.1709H6.66619C5.85898 42.1709 5.24054 41.4356 5.35971 40.6176L11.0411 1.6192Z" fill="#43DB77"/>
<path d="M6.96514 6.1709H42.2004L36.4086 46.3808H9.43881C5.0834 46.3808 1.74421 42.4173 2.38013 38.0025L6.96514 6.1709Z" fill="#FFC058"/>
<path d="M10.6679 6.1709H42.2141L37.0286 42.1709H12.8825C8.98314 42.1709 5.99356 38.6224 6.56289 34.6698L10.6679 6.1709Z" fill="white"/>
<path fill-rule="evenodd" clip-rule="evenodd" d="M42.2581 6.1709H10.369L6.22088 34.6596C5.6449 38.6154 8.63561 42.1709 12.5391 42.1709H37.0163L38.2374 33.7845H17.6233C14.442 33.7845 12.0279 30.8481 12.5682 27.6358L13.8279 20.1477C14.252 17.6266 16.3861 15.7845 18.8829 15.7845H29.605C32.7422 15.7845 35.1396 18.6526 34.6574 21.8289C34.27 24.3808 32.1255 26.2628 29.605 26.2628H21.532C20.6499 26.2628 19.9349 25.5301 19.9349 24.6264C19.9349 23.7227 20.6499 22.99 21.532 22.99H29.605C30.551 22.99 31.3559 22.2837 31.5013 21.3259C31.6823 20.1337 30.7825 19.0573 29.605 19.0573H18.8829C17.9408 19.0573 17.1355 19.7523 16.9755 20.7036L15.7159 28.1917C15.512 29.4038 16.4229 30.5118 17.6233 30.5118H38.7139L42.2581 6.1709Z" fill="#3981F3"/>
<path d="M68.8639 18.3979H62.8002L62.251 21.544H68.2003L67.5825 25.1328H61.6332L60.6035 31.122H56.9424L59.7569 14.809H69.4817L68.8639 18.3979Z" fill="#121E28"/>
<path d="M77.4339 14.809C79.0814 14.809 80.3628 15.3684 81.278 16.487C82.1933 17.59 82.5365 18.9727 82.3077 20.6351C82.0789 22.2198 81.3772 23.5171 80.2026 24.5269C79.028 25.5057 77.5406 25.9951 75.7406 25.9951H73.3838L72.4914 31.122H68.8303L71.6447 14.809H77.4339ZM78.6466 20.4021C78.7686 19.7496 78.6771 19.2369 78.372 18.864C78.0822 18.4911 77.5712 18.3047 76.8389 18.3047H74.7109L73.9787 22.4995H76.1067C76.7932 22.4995 77.3576 22.313 77.8 21.9402C78.2424 21.5673 78.5246 21.0546 78.6466 20.4021Z" fill="#121E28"/>
<path d="M95.6726 14.809L95.0547 18.3979H90.936L88.7393 31.122H85.0782L87.2749 18.3979H83.1561L83.7739 14.809H95.6726Z" fill="#121E28"/>
<path d="M93.9434 31.4483C93.6383 31.4483 93.3637 31.3862 93.1196 31.2619C92.8908 31.1376 92.6925 30.9744 92.5247 30.7725C92.3721 30.5705 92.2654 30.3375 92.2043 30.0734C92.1433 29.7937 92.1357 29.4985 92.1814 29.1878C92.2882 28.5663 92.5781 28.0536 93.051 27.6497C93.5239 27.2302 94.0807 27.0205 94.7213 27.0205C95.0112 27.0205 95.2781 27.0826 95.5222 27.2069C95.7663 27.3312 95.9646 27.4943 96.1171 27.6963C96.2849 27.8983 96.3994 28.1391 96.4604 28.4187C96.5366 28.6984 96.5519 28.9858 96.5061 29.281C96.3994 29.9025 96.1095 30.4229 95.6366 30.8424C95.1637 31.2463 94.5993 31.4483 93.9434 31.4483Z" fill="#121E28"/>
<path d="M105.802 19.1436C107.511 19.1436 108.853 19.734 109.83 20.9148C110.836 22.0955 111.18 23.5559 110.859 25.296C110.829 25.5446 110.775 25.7854 110.699 26.0184C110.638 26.2514 110.57 26.4767 110.493 26.6942H102.302C102.454 27.7818 103.24 28.3255 104.658 28.3255C105.619 28.3255 106.42 28.0226 107.061 27.4167L109.464 29.4208C108.152 30.7725 106.474 31.4483 104.43 31.4483C102.492 31.4483 101.02 30.8346 100.013 29.6073C99.0218 28.3488 98.6709 26.8341 98.9608 25.0629C99.2048 23.3695 99.9828 21.9635 101.295 20.8449C102.591 19.7107 104.094 19.1436 105.802 19.1436ZM107.633 24.0375C107.511 22.8413 106.825 22.2431 105.574 22.2431C104.307 22.2431 103.377 22.8413 102.782 24.0375H107.633Z" fill="#121E28"/>
<path d="M119.761 31.4483C117.32 31.4483 115.429 30.6016 114.086 28.9081C112.744 27.2302 112.271 25.1717 112.668 22.7325C113.049 20.371 114.132 18.3979 115.917 16.8132C117.687 15.2596 119.769 14.4828 122.164 14.4828C123.689 14.4828 124.993 14.8168 126.077 15.4849C127.175 16.1374 127.991 17.0696 128.525 18.2814L125.161 20.0758C124.536 18.7708 123.407 18.1183 121.775 18.1183C120.387 18.1183 119.189 18.561 118.182 19.4466C117.191 20.3322 116.573 21.5051 116.329 22.9655C116.085 24.3949 116.298 25.5679 116.97 26.4845C117.625 27.3701 118.625 27.8128 119.967 27.8128C121.706 27.8128 123.094 27.1215 124.132 25.7388L127.106 27.7196C126.237 28.8848 125.161 29.8015 123.88 30.4695C122.614 31.122 121.241 31.4483 119.761 31.4483Z" fill="#121E28"/>
<path d="M134.123 31.4483C132.765 31.4483 131.644 31.1143 130.759 30.4462C129.875 29.7471 129.28 28.9081 128.975 27.9294C128.685 26.9506 128.647 25.9174 128.86 24.8299C129.181 23.2452 129.951 21.9013 131.171 20.7982C132.392 19.6952 133.91 19.1436 135.725 19.1436C137.54 19.1436 138.921 19.8195 139.866 21.1711C140.812 22.5072 141.133 24.0065 140.828 25.6688C140.553 27.238 139.783 28.5974 138.516 29.7471C137.266 30.8812 135.801 31.4483 134.123 31.4483ZM137.418 25.296C137.571 24.457 137.441 23.789 137.029 23.2918C136.633 22.7946 136.06 22.5461 135.313 22.5461C134.566 22.5461 133.91 22.7946 133.345 23.2918C132.796 23.789 132.445 24.457 132.293 25.296C132.155 26.1349 132.277 26.803 132.659 27.3001C133.04 27.7973 133.604 28.0459 134.352 28.0459C135.099 28.0459 135.763 27.7973 136.343 27.3001C136.922 26.803 137.281 26.1349 137.418 25.296Z" fill="#121E28"/>
<path d="M150.457 19.1436C151.678 19.1436 152.646 19.5787 153.363 20.4487C154.065 21.3032 154.294 22.4762 154.05 23.9676L152.814 31.122H149.382L150.526 24.4803C150.648 23.7657 150.549 23.2374 150.228 22.8956C149.923 22.5383 149.473 22.3596 148.878 22.3596C148.268 22.3596 147.734 22.5461 147.277 22.9189C146.834 23.2918 146.537 23.8589 146.384 24.6201L145.263 31.122H141.831L143.844 19.4699H147.277L147.094 20.5652C147.933 19.6175 149.054 19.1436 150.457 19.1436Z" fill="#121E28"/>
<path d="M160.893 22.8257L160.184 26.9506C160.092 27.4322 160.214 27.7352 160.55 27.8594C160.901 27.9837 161.511 28.0148 162.381 27.9527L161.831 31.122C159.772 31.3551 158.338 31.1298 157.53 30.4462C156.721 29.7626 156.462 28.5974 156.752 26.9506L157.461 22.8257H155.63L156.225 19.4699H158.033L158.422 17.256L162.037 16.2073L161.465 19.4699H163.845L163.25 22.8257H160.893Z" fill="#121E28"/>
<path d="M169.077 21.5673C169.413 20.806 169.916 20.2312 170.588 19.8428C171.274 19.4388 172.052 19.2369 172.922 19.2369L172.258 23.1986C171.999 23.1675 171.739 23.152 171.48 23.152C171.236 23.152 170.984 23.1831 170.725 23.2452C170.466 23.2918 170.206 23.385 169.947 23.5248C169.703 23.6647 169.466 23.8511 169.238 24.0842C169.024 24.3017 168.833 24.558 168.666 24.8532C168.513 25.1484 168.406 25.4824 168.345 25.8553L168.368 25.7155L167.43 31.122H163.998L166.011 19.4699H169.444L169.077 21.5673Z" fill="#121E28"/>
<path d="M182.474 19.4699H185.906L183.892 31.122H180.46L180.597 30.3297C179.728 31.0754 178.584 31.4483 177.165 31.4483C175.426 31.4483 174.152 30.8036 173.344 29.514C172.55 28.2245 172.314 26.7253 172.634 25.0163C172.939 23.4006 173.656 22.0256 174.785 20.8915C175.945 19.7263 177.371 19.1436 179.064 19.1436C180.498 19.1436 181.566 19.6641 182.268 20.705L182.474 19.4699ZM181.467 25.296C181.619 24.4104 181.482 23.719 181.055 23.2219C180.643 22.7092 180.04 22.4529 179.247 22.4529C178.454 22.4529 177.76 22.7092 177.165 23.2219C176.585 23.719 176.219 24.4104 176.067 25.296C175.914 26.1815 176.044 26.8807 176.456 27.3934C176.867 27.8905 177.47 28.1391 178.263 28.1391C179.057 28.1391 179.751 27.8827 180.346 27.3701C180.94 26.8574 181.314 26.1738 181.467 25.3193V25.296Z" fill="#121E28"/>
<path d="M192.222 31.4483C190.407 31.4483 188.996 30.8346 187.989 29.6073C186.982 28.3799 186.616 26.8651 186.891 25.0629C187.15 23.3539 187.921 21.9402 189.202 20.8216C190.483 19.7029 191.986 19.1436 193.71 19.1436C194.899 19.1436 195.914 19.4155 196.753 19.9593C197.592 20.5031 198.202 21.241 198.583 22.1732L195.449 23.8511C195.098 23.0122 194.419 22.5927 193.412 22.5927C193.031 22.5927 192.665 22.6626 192.314 22.8024C191.978 22.9267 191.673 23.1054 191.399 23.3384C191.124 23.5715 190.888 23.8511 190.689 24.1774C190.506 24.5036 190.384 24.861 190.323 25.2494C190.186 26.0417 190.323 26.702 190.735 27.2302C191.147 27.7429 191.727 27.9993 192.474 27.9993C193.435 27.9993 194.228 27.5643 194.854 26.6942L197.622 28.4887C197.043 29.4674 196.272 30.2054 195.311 30.7026C194.35 31.1997 193.321 31.4483 192.222 31.4483Z" fill="#121E28"/>
<path d="M204.221 22.8257L203.512 26.9506C203.421 27.4322 203.543 27.7352 203.878 27.8594C204.229 27.9837 204.839 28.0148 205.709 27.9527L205.16 31.122C203.1 31.3551 201.666 31.1298 200.858 30.4462C200.049 29.7626 199.79 28.5974 200.08 26.9506L200.789 22.8257H198.959L199.553 19.4699H201.361L201.75 17.256L205.365 16.2073L204.793 19.4699H207.173L206.578 22.8257H204.221Z" fill="#121E28"/>
</svg>
