<svg width="20" height="15" viewBox="0 0 20 15" fill="none" xmlns="http://www.w3.org/2000/svg">
<path fill-rule="evenodd" clip-rule="evenodd" d="M10 6.50001C9.173 6.50001 8.5 7.17301 8.5 8.00001C8.5 8.82701 9.173 9.50001 10 9.50001C10.827 9.50001 11.5 8.82701 11.5 8.00001C11.5 7.17301 10.827 6.50001 10 6.50001ZM10 11.5C8.07 11.5 6.5 9.93001 6.5 8.00001C6.5 6.07001 8.07 4.50001 10 4.50001C11.93 4.50001 13.5 6.07001 13.5 8.00001C13.5 9.93001 11.93 11.5 10 11.5ZM19.868 7.50201C19.229 6.39001 15.706 0.81601 9.729 1.00301C4.202 1.14401 0.986 6.01401 0.132 7.50201C-0.044 7.81101 -0.044 8.18901 0.132 8.49801C0.762 9.59501 4.162 15 10.025 15C10.106 15 10.188 14.999 10.271 14.997C15.798 14.856 19.014 9.98601 19.868 8.49801C20.044 8.18901 20.044 7.81101 19.868 7.50201Z" fill="#BDBDBD"/>
</svg>
