<svg width="64" height="64" viewBox="0 0 64 64" fill="none" xmlns="http://www.w3.org/2000/svg">
<g filter="url(#filter0_d)">
<path fill-rule="evenodd" clip-rule="evenodd" d="M16 28C16 19.1634 23.1634 12 32 12C40.8366 12 48 19.1634 48 28C48 36.8366 40.8366 44 32 44C23.1634 44 16 36.8366 16 28Z" fill="#3B5998"/>
<path fill-rule="evenodd" clip-rule="evenodd" d="M33.6676 37.4076V28.7028H36.0706L36.389 25.7031H33.6676L33.6717 24.2017C33.6717 23.4193 33.7461 23.0001 34.8698 23.0001H36.372V20H33.9687C31.082 20 30.066 21.4552 30.066 23.9024V25.7034H28.2666V28.7031H30.066V37.4076H33.6676Z" fill="white"/>
</g>
<defs>
<filter id="filter0_d" x="0" y="0" width="64" height="64" filterUnits="userSpaceOnUse" color-interpolation-filters="sRGB">
<feFlood flood-opacity="0" result="BackgroundImageFix"/>
<feColorMatrix in="SourceAlpha" type="matrix" values="0 0 0 0 0 0 0 0 0 0 0 0 0 0 0 0 0 0 127 0"/>
<feOffset dy="4"/>
<feGaussianBlur stdDeviation="8"/>
<feColorMatrix type="matrix" values="0 0 0 0 0 0 0 0 0 0 0 0 0 0 0 0 0 0 0.08 0"/>
<feBlend mode="normal" in2="BackgroundImageFix" result="effect1_dropShadow"/>
<feBlend mode="normal" in="SourceGraphic" in2="effect1_dropShadow" result="shape"/>
</filter>
</defs>
</svg>
