<svg width="24" height="24" viewBox="0 0 24 24" fill="none" xmlns="http://www.w3.org/2000/svg">
<g id="ic/download">
<path id="Icon" fill-rule="evenodd" clip-rule="evenodd" d="M21.8459 10.8274C21.8673 10.8954 21.8886 10.9635 21.9028 11.0342C21.9648 11.3472 21.9998 11.6692 21.9998 12.0002C21.9998 12.3082 21.9638 12.6112 21.9078 12.9102C21.8954 12.9784 21.8787 13.0437 21.862 13.1091C21.8545 13.1387 21.8469 13.1683 21.8398 13.1982C21.7898 13.3972 21.7308 13.5922 21.6578 13.7832C21.6198 13.8822 21.5808 13.9792 21.5368 14.0752C21.4498 14.2652 21.3488 14.4472 21.2378 14.6262C21.2205 14.654 21.2041 14.6822 21.1877 14.7103C21.1604 14.7573 21.133 14.8042 21.1018 14.8492C21.0926 14.8622 21.0849 14.8757 21.0772 14.889C21.0689 14.9034 21.0606 14.9177 21.0508 14.9312C21.043 14.9423 21.0323 14.9494 21.0217 14.9563C21.013 14.962 21.0045 14.9676 20.9978 14.9752C20.0858 16.1972 18.6418 17.0002 16.9998 17.0002H16.9878C16.9638 16.5342 16.7868 16.0752 16.4388 15.7152C16.0648 15.3262 15.5398 15.1032 14.9998 15.1032C14.6438 15.1032 14.3008 15.1962 13.9998 15.3712V12.0002C13.9998 10.8972 13.1028 10.0002 11.9998 10.0002C10.8978 10.0002 9.99976 10.8972 9.99976 12.0002V15.2662C9.69876 15.0932 9.35676 15.0002 8.99976 15.0002C8.46576 15.0002 7.96376 15.2082 7.58576 15.5862C7.19576 15.9752 7.00076 16.4882 7.00076 17.0002H6.99976C5.35776 17.0002 3.91376 16.1972 3.00276 14.9752C2.99575 14.9678 2.9872 14.9623 2.97864 14.9567C2.96765 14.9496 2.95662 14.9425 2.94876 14.9312C2.93818 14.9168 2.92946 14.9014 2.92071 14.8859C2.91373 14.8736 2.90674 14.8612 2.89876 14.8492C2.86684 14.8033 2.83859 14.7553 2.81036 14.7073C2.79437 14.6802 2.77839 14.653 2.76176 14.6262C2.65176 14.4472 2.54976 14.2652 2.46276 14.0752C2.42017 13.9823 2.3832 13.8885 2.34551 13.7928L2.34176 13.7832C2.26976 13.5922 2.20976 13.3972 2.16076 13.1982C2.15443 13.1729 2.14789 13.1478 2.14137 13.1228C2.12315 13.0528 2.10501 12.9831 2.09176 12.9102C2.03676 12.6112 1.99976 12.3082 1.99976 12.0002C1.99976 11.6692 2.03576 11.3472 2.09676 11.0342C2.11133 10.9614 2.13353 10.8913 2.15573 10.8213C2.16857 10.7808 2.1814 10.7403 2.19276 10.6992C2.19694 10.6839 2.2011 10.6685 2.20527 10.6532C2.25294 10.4774 2.30062 10.3017 2.36776 10.1352C2.40398 10.0447 2.44845 9.95996 2.49305 9.87497C2.51249 9.83794 2.53194 9.80087 2.55076 9.76324C2.55716 9.75053 2.56353 9.73783 2.5699 9.72514C2.64018 9.5852 2.7094 9.44736 2.79376 9.31624C2.85753 9.21534 2.92977 9.12226 3.00207 9.0291C3.01933 9.00686 3.0366 8.98461 3.05376 8.96224L3.0573 8.95769C3.1541 8.83323 3.25007 8.70983 3.35776 8.59424C3.45423 8.4902 3.55787 8.39689 3.66273 8.30247C3.66874 8.29707 3.67475 8.29166 3.68076 8.28624C3.79876 8.18024 3.91876 8.07824 4.04676 7.98424C4.16576 7.89624 4.28776 7.81624 4.41476 7.74024C4.55476 7.65424 4.69776 7.57724 4.84576 7.50624C4.97576 7.44324 5.10576 7.38624 5.24176 7.33524C5.40376 7.27324 5.57076 7.22424 5.74076 7.18024C5.87576 7.14424 6.00776 7.10924 6.14776 7.08624C6.17418 7.0814 6.19983 7.07442 6.22547 7.06745C6.25805 7.05858 6.29062 7.04972 6.32476 7.04524C7.14576 4.66124 9.41976 3.00024 11.9998 3.00024C14.5808 3.00024 16.8548 4.66124 17.6748 7.04524C17.709 7.04973 17.7419 7.05862 17.7748 7.0675C17.8006 7.07446 17.8264 7.08141 17.8528 7.08624C17.9918 7.10924 18.1248 7.14424 18.2588 7.18024C18.4288 7.22424 18.5958 7.27324 18.7578 7.33524C18.8938 7.38624 19.0248 7.44324 19.1538 7.50624C19.3018 7.57724 19.4448 7.65424 19.5848 7.74024C19.7118 7.81624 19.8348 7.89624 19.9538 7.98424C20.0808 8.07824 20.2008 8.18024 20.3188 8.28624C20.4308 8.38624 20.5398 8.48424 20.6428 8.59424C20.7518 8.71124 20.8488 8.83624 20.9458 8.96224C20.9584 8.9786 20.9711 8.99489 20.9838 9.01117C21.0612 9.11034 21.138 9.20887 21.2068 9.31624C21.2899 9.44684 21.3588 9.58411 21.4288 9.72348C21.4354 9.73672 21.4421 9.74997 21.4488 9.76324C21.4676 9.80087 21.487 9.83794 21.5065 9.87497C21.5511 9.95996 21.5955 10.0447 21.6318 10.1352C21.7 10.3022 21.7479 10.4785 21.7957 10.6548C21.7997 10.6696 21.8037 10.6844 21.8078 10.6992C21.8193 10.7423 21.8326 10.7848 21.8459 10.8274ZM13.0002 17.6438L14.3052 16.3838C14.7032 16.0008 15.3362 16.0118 15.7192 16.4088C16.1032 16.8068 16.0922 17.4398 15.6952 17.8228L12.6952 20.7198C12.5002 20.9058 12.2502 20.9998 12.0002 20.9998C11.7442 20.9998 11.4882 20.9028 11.2932 20.7068L8.29316 17.7068C7.90216 17.3168 7.90216 16.6838 8.29316 16.2928C8.68316 15.9028 9.31616 15.9028 9.70716 16.2928L11.0002 17.5858V11.9998C11.0002 11.4468 11.4482 10.9998 12.0002 10.9998C12.5522 10.9998 13.0002 11.4468 13.0002 11.9998V17.6438Z" fill="white"/>
</g>
</svg>
