<svg width="24" height="24" viewBox="0 0 24 24" fill="none" xmlns="http://www.w3.org/2000/svg">
<g id="ic/sign">
<path id="Icon" fill-rule="evenodd" clip-rule="evenodd" d="M14 3.978L17.742 8H14.714C14.32 8 14 7.619 14 7.15V3.978ZM19.741 7.328L15.296 2.328C15.107 2.119 14.838 2 14.556 2H6.556C5.146 2 4 3.122 4 4.5V19.5C4 20.878 5.146 22 6.556 22H17.444C18.854 22 20 20.878 20 19.5V8C20 7.751 19.908 7.512 19.741 7.328Z" fill="#2E6CF6"/>
<path id="Icon_2" fill-rule="evenodd" clip-rule="evenodd" d="M19.741 7.328L15.296 2.328C15.107 2.119 14.838 2 14.556 2H6.556C5.146 2 4 3.122 4 4.5V19.5C4 20.878 5.146 22 6.556 22H17.444C18.854 22 20 20.878 20 19.5V8C20 7.751 19.908 7.512 19.741 7.328ZM19.741 7.328L15.296 2.328C15.107 2.119 14.838 2 14.556 2H6.556C5.146 2 4 3.122 4 4.5V19.5C4 20.878 5.146 22 6.556 22H17.444C18.854 22 20 20.878 20 19.5V8C20 7.751 19.908 7.512 19.741 7.328Z" fill="#2E6CF6"/>
<g id="Group 813">
<path id="Vector 108" d="M7 13H15.5" stroke="white"/>
<path id="Vector 109" d="M7 16H15.5" stroke="white"/>
</g>
</g>
</svg>
