<svg width="64" height="64" viewBox="0 0 64 64" fill="none" xmlns="http://www.w3.org/2000/svg">
<g filter="url(#filter0_d)">
<path fill-rule="evenodd" clip-rule="evenodd" d="M16 28C16 19.1634 23.1634 12 32 12C40.8366 12 48 19.1634 48 28C48 36.8366 40.8366 44 32 44C23.1634 44 16 36.8366 16 28Z" fill="white"/>
<path fill-rule="evenodd" clip-rule="evenodd" d="M31.9999 23.7473C33.3019 23.7473 34.1801 24.3097 34.6808 24.7796L36.6376 22.8691C35.4358 21.752 33.8719 21.0664 31.9999 21.0664C29.2882 21.0664 26.9463 22.6226 25.8062 24.8874L28.0479 26.6285C28.6103 24.9568 30.1664 23.7473 31.9999 23.7473Z" fill="#EA4335"/>
<path fill-rule="evenodd" clip-rule="evenodd" d="M38.656 28.1543C38.656 27.5842 38.6098 27.1682 38.5096 26.7368H32V29.3099H35.821C35.744 29.9493 35.328 30.9122 34.4036 31.5593L36.5914 33.2542C37.901 32.0447 38.656 30.2651 38.656 28.1543Z" fill="#4285F4"/>
<path fill-rule="evenodd" clip-rule="evenodd" d="M28.0557 29.3713C27.9093 28.9398 27.8246 28.4776 27.8246 28C27.8246 27.5224 27.9093 27.0601 28.048 26.6287L25.8062 24.8877C25.3363 25.8275 25.0667 26.883 25.0667 28C25.0667 29.117 25.3363 30.1724 25.8062 31.1123L28.0557 29.3713Z" fill="#FBBC05"/>
<path fill-rule="evenodd" clip-rule="evenodd" d="M32 34.9332C33.872 34.9332 35.4436 34.3169 36.5914 33.2538L34.4036 31.5589C33.8181 31.9672 33.0323 32.2523 32 32.2523C30.1666 32.2523 28.6104 31.0428 28.0557 29.3711L25.814 31.1121C26.9541 33.377 29.2883 34.9332 32 34.9332Z" fill="#34A853"/>
</g>
<defs>
<filter id="filter0_d" x="0" y="0" width="64" height="64" filterUnits="userSpaceOnUse" color-interpolation-filters="sRGB">
<feFlood flood-opacity="0" result="BackgroundImageFix"/>
<feColorMatrix in="SourceAlpha" type="matrix" values="0 0 0 0 0 0 0 0 0 0 0 0 0 0 0 0 0 0 127 0"/>
<feOffset dy="4"/>
<feGaussianBlur stdDeviation="8"/>
<feColorMatrix type="matrix" values="0 0 0 0 0 0 0 0 0 0 0 0 0 0 0 0 0 0 0.08 0"/>
<feBlend mode="normal" in2="BackgroundImageFix" result="effect1_dropShadow"/>
<feBlend mode="normal" in="SourceGraphic" in2="effect1_dropShadow" result="shape"/>
</filter>
</defs>
</svg>
