<svg width="14" height="18" viewBox="0 0 14 18" fill="none" xmlns="http://www.w3.org/2000/svg">
<path fill-rule="evenodd" clip-rule="evenodd" d="M6.99992 5.6665C6.31075 5.6665 5.74992 6.22734 5.74992 6.9165C5.74992 7.60567 6.31075 8.1665 6.99992 8.1665C7.68909 8.1665 8.24992 7.60567 8.24992 6.9165C8.24992 6.22734 7.68909 5.6665 6.99992 5.6665ZM6.99992 9.83317C5.39158 9.83317 4.08325 8.52484 4.08325 6.9165C4.08325 5.30817 5.39158 3.99984 6.99992 3.99984C8.60825 3.99984 9.91658 5.30817 9.91658 6.9165C9.91658 8.52484 8.60825 9.83317 6.99992 9.83317ZM6.99992 0.666504C3.32409 0.666504 0.333252 3.62817 0.333252 7.269C0.333252 10.4348 3.0227 14.4775 6.99992 17.3332C11.2545 14.536 13.6666 10.3176 13.6666 7.269C13.6666 3.62817 10.6758 0.666504 6.99992 0.666504Z" fill="#121E28"/>
</svg>
