<svg width="20" height="15" viewBox="0 0 20 15" fill="none" xmlns="http://www.w3.org/2000/svg">
<path fill-rule="evenodd" clip-rule="evenodd" d="M10 6.50013C9.173 6.50013 8.5 7.17313 8.5 8.00013C8.5 8.82713 9.173 9.50013 10 9.50013C10.827 9.50013 11.5 8.82713 11.5 8.00013C11.5 7.17313 10.827 6.50013 10 6.50013ZM10 11.5001C8.07 11.5001 6.5 9.93013 6.5 8.00013C6.5 6.07013 8.07 4.50013 10 4.50013C11.93 4.50013 13.5 6.07013 13.5 8.00013C13.5 9.93013 11.93 11.5001 10 11.5001ZM19.868 7.50213C19.229 6.39013 15.706 0.816132 9.729 1.00313C4.202 1.14413 0.986 6.01413 0.132 7.50213C-0.044 7.81113 -0.044 8.18913 0.132 8.49813C0.762 9.59513 4.162 15.0001 10.025 15.0001C10.106 15.0001 10.188 14.9991 10.271 14.9971C15.798 14.8561 19.014 9.98613 19.868 8.49813C20.044 8.18913 20.044 7.81113 19.868 7.50213Z" fill="#BDBDBD"/>
</svg>
