<svg width="64" height="64" viewBox="0 0 64 64" fill="none" xmlns="http://www.w3.org/2000/svg">
<g filter="url(#filter0_d)">
<path fill-rule="evenodd" clip-rule="evenodd" d="M16 28C16 19.1634 23.1634 12 32 12C40.8366 12 48 19.1634 48 28C48 36.8366 40.8366 44 32 44C23.1634 44 16 36.8366 16 28Z" fill="#FF0000"/>
<path fill-rule="evenodd" clip-rule="evenodd" d="M40.1768 24.0488C39.9805 23.2948 39.4022 22.701 38.6679 22.4995C37.3371 22.1333 32.0001 22.1333 32.0001 22.1333C32.0001 22.1333 26.6632 22.1333 25.3323 22.4995C24.5979 22.701 24.0196 23.2948 23.8234 24.0488C23.4668 25.4153 23.4668 28.2666 23.4668 28.2666C23.4668 28.2666 23.4668 31.1178 23.8234 32.4845C24.0196 33.2385 24.5979 33.8322 25.3323 34.0338C26.6632 34.4 32.0001 34.4 32.0001 34.4C32.0001 34.4 37.3371 34.4 38.6679 34.0338C39.4022 33.8322 39.9805 33.2385 40.1768 32.4845C40.5335 31.1178 40.5335 28.2666 40.5335 28.2666C40.5335 28.2666 40.5335 25.4153 40.1768 24.0488Z" fill="white"/>
<path fill-rule="evenodd" clip-rule="evenodd" d="M30.3999 31.1995V25.8662L34.6666 28.533L30.3999 31.1995Z" fill="#FF0000"/>
</g>
<defs>
<filter id="filter0_d" x="0" y="0" width="64" height="64" filterUnits="userSpaceOnUse" color-interpolation-filters="sRGB">
<feFlood flood-opacity="0" result="BackgroundImageFix"/>
<feColorMatrix in="SourceAlpha" type="matrix" values="0 0 0 0 0 0 0 0 0 0 0 0 0 0 0 0 0 0 127 0"/>
<feOffset dy="4"/>
<feGaussianBlur stdDeviation="8"/>
<feColorMatrix type="matrix" values="0 0 0 0 0 0 0 0 0 0 0 0 0 0 0 0 0 0 0.08 0"/>
<feBlend mode="normal" in2="BackgroundImageFix" result="effect1_dropShadow"/>
<feBlend mode="normal" in="SourceGraphic" in2="effect1_dropShadow" result="shape"/>
</filter>
</defs>
</svg>
