<svg width="56" height="56" viewBox="0 0 56 56" fill="none" xmlns="http://www.w3.org/2000/svg">
<path fill-rule="evenodd" clip-rule="evenodd" d="M31.2997 28L41.3167 17.983C42.229 17.0707 42.229 15.596 41.3167 14.6837C40.4043 13.7713 38.9297 13.7713 38.0173 14.6837L28.0003 24.7007L17.9833 14.6837C17.071 13.7713 15.5963 13.7713 14.684 14.6837C13.7717 15.596 13.7717 17.0707 14.684 17.983L24.701 28L14.684 38.017C13.7717 38.9293 13.7717 40.404 14.684 41.3163C15.139 41.7713 15.7363 42 16.3337 42C16.931 42 17.5283 41.7713 17.9833 41.3163L28.0003 31.2993L38.0173 41.3163C38.4723 41.7713 39.0697 42 39.667 42C40.2643 42 40.8617 41.7713 41.3167 41.3163C42.229 40.404 42.229 38.9293 41.3167 38.017L31.2997 28Z" fill="#2E3A59"/>
</svg>
