<svg width="28" height="28" viewBox="0 0 28 28" fill="none" xmlns="http://www.w3.org/2000/svg">
<g id=" checkmark-circle-2">
<path id="Icon" fill-rule="evenodd" clip-rule="evenodd" d="M24.4965 12.8032H24.5C25.1428 12.8032 25.6655 13.3235 25.6666 13.9663C25.676 17.0825 24.4708 20.0167 22.2728 22.2263C20.076 24.436 17.15 25.6575 14.0338 25.6668H14C10.8955 25.6668 7.97531 24.4628 5.77381 22.273C3.56414 20.0762 2.34264 17.1502 2.33331 14.034C2.32397 10.9167 3.52914 7.98366 5.72714 5.774C7.92397 3.56433 10.85 2.34283 13.9661 2.3335C14.8936 2.3475 15.8386 2.44083 16.744 2.65783C17.3693 2.8095 17.7555 3.4395 17.6038 4.066C17.4533 4.69133 16.8198 5.07633 16.1968 4.927C15.4723 4.752 14.7035 4.6785 13.9731 4.66683C11.48 4.67383 9.13847 5.6515 7.38147 7.419C5.62331 9.1865 4.65964 11.5338 4.66664 14.027C4.67364 16.5202 5.65131 18.8605 7.41881 20.6187C9.18047 22.3698 11.5161 23.3335 14 23.3335H14.0268C16.52 23.3265 18.8615 22.3488 20.6185 20.5813C22.3766 18.8127 23.3403 16.4665 23.3333 13.9733C23.3321 13.3293 23.8525 12.8043 24.4965 12.8032ZM9.67514 13.1752C10.1313 12.719 10.8686 12.719 11.3248 13.1752L13.9428 15.7932L21.2893 7.39787C21.714 6.91604 22.4501 6.86471 22.9355 7.28937C23.4196 7.71287 23.4686 8.45021 23.044 8.93554L14.8773 18.2689C14.665 18.5115 14.3616 18.655 14.0385 18.6667H14C13.6908 18.6667 13.3945 18.5442 13.1751 18.3249L9.67514 14.8249C9.21897 14.3687 9.21897 13.6314 9.67514 13.1752Z" fill="#2E6CF6"/>
</g>
</svg>
